<?xml version="1.0" standalone="no"?>
<!DOCTYPE svg PUBLIC "-//W3C//DTD SVG 20010904//EN"
 "http://www.w3.org/TR/2001/REC-SVG-20010904/DTD/svg10.dtd">
<svg version="1.0" xmlns="http://www.w3.org/2000/svg"
 width="300.000000pt" height="300.000000pt" viewBox="0 0 300.000000 300.000000"
 preserveAspectRatio="xMidYMid meet">
<metadata>
Created by potrace 1.14, written by Peter Selinger 2001-2017
</metadata>
<g transform="translate(0.000000,300.000000) scale(0.100000,-0.100000)"
fill="#000000" stroke="none">
<path d="M1045 2904 c-198 -42 -355 -177 -355 -305 1 -103 67 -176 229 -251
273 -127 308 -147 351 -195 l41 -47 -73 -21 c-199 -58 -311 -167 -310 -301 0
-51 23 -114 57 -160 15 -21 14 -22 -27 -39 -71 -28 -187 -46 -296 -46 -241 1
-393 74 -460 219 -67 146 -8 377 132 515 32 32 55 61 52 65 -11 10 -90 -36
-136 -80 -101 -98 -163 -230 -163 -354 -1 -72 3 -89 31 -147 58 -117 180 -205
338 -243 143 -35 426 -15 554 39 32 14 38 14 80 -8 42 -21 99 -36 193 -50 20
-3 37 -8 37 -11 0 -11 -110 -220 -133 -253 l-23 -34 -135 2 c-156 3 -253 -14
-344 -58 -146 -72 -191 -178 -114 -266 69 -78 200 -87 331 -22 75 37 177 125
246 211 l30 39 66 -13 66 -12 0 -52 c0 -190 223 -292 388 -176 23 16 46 30 50
30 15 -1 61 -78 76 -129 21 -72 20 -120 -4 -182 l-21 -51 26 4 c14 3 25 2 25
-3 0 -16 -137 -147 -191 -182 -92 -61 -211 -82 -289 -51 -48 19 -70 55 -70
113 0 33 7 47 36 77 36 36 38 36 103 31 36 -3 76 -8 89 -12 13 -4 22 -3 22 3
0 19 -74 36 -155 37 -95 0 -144 -20 -181 -74 -44 -66 -23 -146 53 -197 73 -49
247 -56 368 -14 171 59 348 247 482 514 l45 90 33 -130 c52 -204 104 -318 185
-407 68 -74 123 -101 200 -95 103 7 166 69 261 254 27 54 49 103 49 111 0 29
-17 10 -58 -65 -92 -165 -160 -232 -238 -232 -36 0 -51 6 -84 36 -82 74 -169
245 -216 423 -35 134 -37 127 52 135 187 17 372 88 473 181 68 64 91 105 91
168 0 109 -140 205 -338 232 -46 6 -52 9 -47 26 11 35 -5 41 -39 16 -31 -24
-34 -25 -126 -15 -52 6 -159 7 -236 4 -257 -10 -432 -47 -566 -118 -73 -39
-171 -127 -204 -185 -16 -26 -32 -42 -40 -39 -7 3 -29 8 -49 12 -20 3 -35 9
-33 13 2 3 39 76 83 163 l79 156 63 17 c295 80 556 353 593 618 14 99 0 143
-55 174 -111 63 -266 -11 -382 -183 -57 -84 -82 -136 -173 -365 -45 -112 -86
-210 -92 -216 -22 -27 -211 -4 -244 29 -13 12 -4 21 63 63 100 63 208 173 252
254 67 127 49 235 -56 331 -41 38 -103 74 -251 146 -208 101 -244 125 -279
183 -42 67 -28 134 44 203 113 109 396 164 518 101 82 -43 122 -111 104 -176
-12 -44 -35 -64 -84 -75 -43 -9 -60 -32 -23 -32 39 1 101 35 137 75 31 36 33
42 29 97 -4 47 -10 64 -34 89 -61 64 -144 89 -299 88 -60 0 -141 -7 -180 -15z
m926 -675 c19 -19 21 -28 15 -83 -24 -208 -192 -432 -407 -539 -52 -26 -109
-50 -127 -54 l-34 -6 65 129 c172 343 289 504 401 555 52 24 61 24 87 -2z
m-643 -243 c-5 -81 -43 -162 -109 -231 -50 -53 -147 -125 -168 -125 -33 0 -59
121 -41 190 31 120 123 212 239 241 80 19 85 15 79 -75z m1061 -542 l31 -7
-33 -41 c-55 -67 -123 -176 -260 -420 -71 -127 -150 -265 -176 -306 l-46 -75
-6 60 c-9 82 -42 164 -88 216 l-38 44 18 40 c20 44 25 85 9 85 -5 0 -10 -7
-10 -16 0 -9 -10 -32 -21 -51 -20 -32 -22 -33 -43 -19 -56 41 -162 101 -231
131 -42 18 -78 35 -81 38 -9 8 70 104 120 145 102 84 262 139 481 166 118 15
323 20 374 10z m208 -30 c129 -26 187 -69 200 -149 8 -50 -35 -133 -100 -189
-98 -87 -206 -128 -362 -141 -44 -3 -93 -9 -108 -12 l-28 -5 22 44 c21 42 116
201 226 381 30 48 59 87 64 87 5 0 44 -7 86 -16z m-1524 -290 c20 -4 37 -11
37 -16 0 -5 -37 -47 -83 -93 -124 -126 -260 -184 -367 -155 -51 14 -90 50 -90
83 0 37 41 89 90 117 97 54 291 84 413 64z m452 -113 c90 -35 185 -87 185
-100 0 -19 -52 -50 -100 -60 -123 -26 -220 46 -220 163 0 44 0 44 28 37 15 -5
63 -23 107 -40z"/>
</g>
</svg>
